# xmcd CD database file
#
# Track frame offsets:
#	150
#	13161
#	27624
#	45336
#	65531
#	82880
#	99663
#	107554
#	122376
#	139819
#	158459
#	173912
#	188592
#
# Disc length: 2713 seconds
#
# Revision: 0
# Processed by: cddbd v1.5.2PL0 Copyright (c) Steve Scherf et al.
# Submitted via: CDex 1.70beta2
#
DISCID=9b0a970d
DTITLE=Borsuk, Mark - Etched In Stone
DYEAR=1998
DGENRE=Country
TTITLE0=New Attitude
TTITLE1=Ronni's Reality
TTITLE2=Memories
TTITLE3=Foxy Mama
TTITLE4=For You
TTITLE5=Let Your Chips Fall
TTITLE6=La La La
TTITLE7=You And Me Baby
TTITLE8=Watch The Children
TTITLE9=Only Woman
TTITLE10=Dear Lord
TTITLE11=Believe In Me
TTITLE12=All We Need
EXTD=YEAR: 1998
EXTT0=
EXTT1=
EXTT2=
EXTT3=
EXTT4=
EXTT5=
EXTT6=
EXTT7=
EXTT8=
EXTT9=
EXTT10=
EXTT11=
EXTT12=
PLAYORDER=
